<svg xmlns="http://www.w3.org/2000/svg" viewBox="0 0 1100 700" role="img" aria-label="Azeni base form, original Echohearts Eco-Kin vector concept"><defs><linearGradient id="sky" x2="0" y2="1"><stop stop-color="#253d39"/><stop offset="1" stop-color="#b48a58"/></linearGradient><pattern id="scale" width="38" height="30" patternUnits="userSpaceOnUse"><path d="M0 20 Q19 0 38 20" fill="none" stroke="#4dc6df" stroke-opacity=".45" stroke-width="3"/></pattern></defs><rect width="1100" height="700" fill="url(#sky)"/><path d="M0 490 Q170 405 350 480 T750 460 T1100 480 V700 H0Z" fill="#45513c"/><ellipse cx="530" cy="555" rx="380" ry="45" fill="#0b1820" opacity=".55"/><g stroke="#172a2a" stroke-width="10" stroke-linejoin="round"><path d="M755 400 Q875 390 1000 480 Q865 465 755 445 Z" fill="#8a725d"/><path d="M365 400 L315 545 Q355 575 410 545 L460 420 M640 415 L685 548 Q745 575 785 540 L745 395" fill="#8a725d"/><path d="M250 390 Q330 275 570 290 Q730 315 780 420 Q585 465 300 455 Z" fill="#8a725d"/><path d="M250 390 Q330 275 570 290 Q730 315 780 420 Q585 465 300 455 Z" fill="url(#scale)" stroke="none"/><path d="M265 370 Q155 310 100 420 Q175 460 300 430 Z" fill="#8a725d"/></g><g fill="#4dc6df" stroke="#1b343c" stroke-width="5"><path d="M395 275 L420 205 L445 270 M475 258 L515 175 L545 255 M575 270 L615 205 L635 295"/><circle cx="220" cy="388" r="12" fill="#0c1b25"/></g><path d="M325 450 L305 545 M700 450 L730 548" stroke="#4dc6df" stroke-width="8" opacity=".65"/><text x="50" y="82" fill="#fff5d5" font-family="serif" font-weight="bold" font-size="60">AZENI</text><text x="53" y="123" fill="#4dc6df" font-family="sans-serif" font-size="23">BASE ECOFORM • CONCEPT / Ethiopian headwaters</text><text x="53" y="660" fill="#ffffff" font-family="sans-serif" font-size="19">Water/Earth · Ecosystem Builder · Terrace Forge</text></svg>