<svg xmlns="http://www.w3.org/2000/svg" viewBox="0 0 1100 700" role="img" aria-label="Nyashaq base form, original Echohearts Eco-Kin vector concept"><defs><linearGradient id="sky" x2="0" y2="1"><stop stop-color="#253d39"/><stop offset="1" stop-color="#b48a58"/></linearGradient><pattern id="scale" width="38" height="30" patternUnits="userSpaceOnUse"><path d="M0 20 Q19 0 38 20" fill="none" stroke="#38cfc2" stroke-opacity=".45" stroke-width="3"/></pattern></defs><rect width="1100" height="700" fill="url(#sky)"/><path d="M0 490 Q170 405 350 480 T750 460 T1100 480 V700 H0Z" fill="#45513c"/><ellipse cx="530" cy="555" rx="380" ry="45" fill="#0b1820" opacity=".55"/><g stroke="#172a2a" stroke-width="10" stroke-linejoin="round"><path d="M720 375 Q885 265 970 310 Q920 355 760 420 Z" fill="#72513b"/><path d="M365 400 L315 545 Q355 575 410 545 L460 420 M640 415 L685 548 Q745 575 785 540 L745 395" fill="#72513b"/><path d="M270 380 Q350 285 600 315 Q710 340 735 420 Q520 455 295 445 Z" fill="#72513b"/><path d="M270 380 Q350 285 600 315 Q710 340 735 420 Q520 455 295 445 Z" fill="url(#scale)" stroke="none"/><path d="M290 362 Q170 285 115 390 Q145 455 295 420 Z" fill="#72513b"/></g><g fill="#38cfc2" stroke="#1b343c" stroke-width="5"><path d="M395 275 L420 205 L445 270 M475 258 L515 175 L545 255 M575 270 L615 205 L635 295"/><circle cx="220" cy="388" r="12" fill="#0c1b25"/></g><path d="M325 450 L305 545 M700 450 L730 548" stroke="#38cfc2" stroke-width="8" opacity=".65"/><text x="50" y="82" fill="#fff5d5" font-family="serif" font-weight="bold" font-size="60">NYASHAQ</text><text x="53" y="123" fill="#38cfc2" font-family="sans-serif" font-size="23">BASE ECOFORM • CONCEPT / Okavango</text><text x="53" y="660" fill="#ffffff" font-family="sans-serif" font-size="19">Water/Life · Tracker · Delta Surge</text></svg>